<?xml version="1.0" standalone="no"?>
<!DOCTYPE svg PUBLIC "-//W3C//DTD SVG 20010904//EN"
  "http://www.w3.org/TR/2001/REC-SVG-20010904/DTD/svg10.dtd">
<svg version="1.0" xmlns="http://www.w3.org/2000/svg"
     width="256.000000pt" height="256.000000pt" viewBox="0 0 256.000000 256.000000"
     preserveAspectRatio="xMidYMid meet">
  <metadata>
    Created by potrace 1.11, written by Peter Selinger 2001-2013
  </metadata>
  <g transform="translate(0.000000,256.000000) scale(0.100000,-0.100000)"
     fill="#000000" stroke="none">
    <path d="M400 2553 c-75 -26 -127 -69 -161 -133 l-24 -45 0 -750 c0 -719 1
-752 19 -789 24 -47 75 -98 124 -123 31 -15 60 -18 187 -17 209 2 291 5 306
15 10 6 10 16 0 49 -17 57 -60 125 -157 250 -132 170 -182 268 -212 415 -4 17
-6 82 -6 145 1 225 82 410 248 567 272 259 685 296 995 88 330 -220 451 -650
282 -999 -49 -100 -117 -191 -227 -303 -151 -151 -165 -194 -66 -188 31 2 138
6 237 9 185 7 228 14 280 49 41 28 62 54 91 112 l24 50 0 691 c0 612 -2 697
-16 742 -19 58 -73 119 -130 148 -38 18 -72 19 -909 21 -478 1 -877 -1 -885
-4z"/>
    <path d="M1040 1961 c-6 -13 -10 -178 -10 -469 0 -438 0 -449 20 -467 16 -14
26 -17 45 -9 14 5 164 108 334 229 313 222 335 243 307 279 -6 8 -150 114
-321 235 -319 228 -352 245 -375 202z"/>
    <path d="M1477 674 c-1 -1 -76 -5 -167 -8 -466 -17 -464 -17 -500 -90 -11 -23
-20 -53 -20 -65 0 -39 30 -90 67 -112 33 -21 42 -21 226 -15 106 4 251 9 322
12 72 4 162 8 200 9 39 2 75 3 81 4 19 2 25 33 11 50 -9 10 -15 42 -16 80 -1
35 -4 68 -7 72 -2 4 3 12 12 17 11 6 14 16 9 31 -6 21 -11 22 -112 19 -57 -2
-105 -4 -106 -4z"/>
    <path d="M1507 334 c-1 -1 -81 -5 -177 -9 -96 -4 -197 -9 -225 -10 -27 -2 -69
-3 -91 -4 l-42 -1 4 -70 c3 -89 32 -151 87 -191 59 -42 105 -51 247 -47 114 3
128 6 165 29 81 53 111 113 114 228 l2 78 -41 -1 c-23 0 -42 -1 -43 -2z"/>
  </g>
</svg>
