<?xml version="1.0" standalone="no"?>
<!DOCTYPE svg PUBLIC "-//W3C//DTD SVG 20010904//EN"
  "http://www.w3.org/TR/2001/REC-SVG-20010904/DTD/svg10.dtd">
<svg version="1.0" xmlns="http://www.w3.org/2000/svg"
     width="144.000000pt" height="144.000000pt" viewBox="0 0 144.000000 144.000000"
     preserveAspectRatio="xMidYMid meet">
  <metadata>
    Created by potrace 1.11, written by Peter Selinger 2001-2013
  </metadata>
  <g transform="translate(0.000000,144.000000) scale(0.100000,-0.100000)"
     fill="#000000" stroke="none">
    <path d="M578 1295 c-209 -52 -380 -226 -423 -432 -42 -198 12 -380 155 -523
123 -123 224 -165 395 -164 91 0 121 4 175 24 54 20 85 24 177 25 62 1 115 4
118 7 3 3 -1 17 -9 33 -22 42 -11 108 34 200 89 186 92 361 7 534 -43 89 -158
204 -247 248 -122 60 -263 77 -382 48z"/>
  </g>
</svg>
