<?xml version="1.0" standalone="no"?>
<!DOCTYPE svg PUBLIC "-//W3C//DTD SVG 20010904//EN"
 "http://www.w3.org/TR/2001/REC-SVG-20010904/DTD/svg10.dtd">
<svg version="1.0" xmlns="http://www.w3.org/2000/svg"
 width="198.000000pt" height="198.000000pt" viewBox="0 0 198.000000 198.000000"
 preserveAspectRatio="xMidYMid meet">
<metadata>
Created by potrace 1.11, written by Peter Selinger 2001-2013
</metadata>
<g transform="translate(0.000000,198.000000) scale(0.100000,-0.100000)"
fill="#000000" stroke="none">
<path d="M900 1936 c-31 -18 -85 -46 -120 -62 -152 -67 -236 -130 -299 -225
-116 -173 -112 -424 9 -620 l30 -49 -33 6 c-94 17 -322 6 -432 -21 -45 -12
-46 -13 -19 -52 14 -21 54 -96 89 -169 53 -108 75 -142 127 -195 140 -142 325
-187 534 -129 78 21 166 60 197 88 18 16 18 14 10 -48 -12 -97 -6 -254 13
-350 20 -102 21 -105 42 -87 16 14 49 31 242 125 138 68 246 199 284 344 17
66 13 202 -9 283 -18 69 -68 181 -93 208 -16 18 -15 19 38 11 119 -16 302 -7
415 21 46 12 47 14 25 46 -12 16 -42 73 -67 126 -117 248 -228 352 -413 387
-139 27 -311 -5 -436 -80 l-55 -33 7 32 c19 86 10 302 -19 424 l-12 52 -55
-33z m-118 -362 c-32 -22 -68 -82 -93 -156 -17 -49 -22 -89 -22 -180 -1 -70 3
-122 9 -128 7 -7 26 -2 61 17 64 35 97 63 153 132 80 97 139 144 241 186 95
41 164 54 259 51 169 -6 278 -89 370 -281 27 -57 51 -109 52 -115 4 -18 -23
-22 -157 -23 -141 -2 -227 17 -316 69 -51 30 -129 105 -129 125 0 25 155 19
230 -10 31 -11 77 -34 103 -51 52 -32 56 -30 28 15 -52 86 -130 127 -246 131
-74 2 -203 -20 -222 -39 -3 -4 6 -34 22 -68 36 -73 120 -157 199 -196 l56 -27
-4 -181 c-6 -241 -29 -327 -108 -405 -56 -55 -89 -61 -43 -7 39 45 68 115 83
198 10 51 9 235 0 245 -8 7 -71 -23 -113 -54 -63 -46 -102 -91 -137 -158 l-32
-62 -176 3 c-268 4 -389 46 -445 155 l-16 30 51 -38 c52 -39 123 -70 188 -80
59 -10 232 -6 242 4 7 7 1 27 -15 60 -41 80 -115 151 -207 197 l-43 22 1 170
c2 271 38 377 149 446 36 23 59 25 27 3z"/>
</g>
</svg>
